<?xml version="1.0" encoding="UTF-8"?>
<svg xmlns="http://www.w3.org/2000/svg" viewBox="0 0 820 860" font-family="Arial,sans-serif" font-size="13">
  <rect width="820" height="860" fill="#F4F6F9"/>
  <rect x="10" y="10" width="800" height="55" fill="#1B2A41"/>
  <text x="30" y="43" fill="#F77F00" font-weight="bold" font-size="16">⛽ GASOYA</text>
  <text x="200" y="43" fill="#CBD5E1" font-size="12">Inicio | Gasolineras | Precios | Horarios | Ofertas | Calculadora | Contacto</text>

  <text x="30" y="100" font-size="17" font-weight="bold">Gasolineras / Ubicaciones</text>

  <!-- Mapa placeholder -->
  <rect x="10" y="115" width="800" height="180" fill="#243554" rx="8"/>
  <text x="410" y="195" text-anchor="middle" fill="#94A3B8" font-size="32">🗺️</text>
  <text x="410" y="235" text-anchor="middle" fill="#94A3B8">Mapa interactivo — Entrega Final</text>

  <!-- Filtros -->
  <rect x="10" y="305" width="800" height="45" fill="#fff" stroke="#ddd"/>
  <rect x="20" y="315" width="80"  height="24" fill="#F77F00"/><text x="60"  y="332" text-anchor="middle" fill="#fff" font-size="11">Todas</text>
  <rect x="110" y="315" width="100" height="24" fill="#eee" stroke="#bbb"/><text x="160" y="332" text-anchor="middle" font-size="11">Abiertas ahora</text>
  <rect x="220" y="315" width="70"  height="24" fill="#eee" stroke="#bbb"/><text x="255" y="332" text-anchor="middle" font-size="11">24 horas</text>
  <rect x="300" y="315" width="90"  height="24" fill="#eee" stroke="#bbb"/><text x="345" y="332" text-anchor="middle" font-size="11">Petroecuador</text>
  <rect x="400" y="315" width="65"  height="24" fill="#eee" stroke="#bbb"/><text x="433" y="332" text-anchor="middle" font-size="11">Primax</text>
  <rect x="475" y="315" width="65"  height="24" fill="#eee" stroke="#bbb"/><text x="508" y="332" text-anchor="middle" font-size="11">Repsol</text>

  <!-- Tarjetas -->
  <g>
    <rect x="10"  y="360" width="250" height="180" fill="#fff" stroke="#ddd"/>
    <rect x="10"  y="360" width="250" height="80"  fill="#FFF3E0"/>
    <text x="135" y="405" text-anchor="middle" font-size="26">⛽</text>
    <text x="135" y="465" text-anchor="middle" font-weight="bold" font-size="12">Petroecuador Norte</text>
    <text x="135" y="485" text-anchor="middle" fill="#888" font-size="11">Av. de la Prensa — 24 h</text>
    <text x="135" y="505" text-anchor="middle" fill="#F77F00" font-weight="bold">$2.35/gal Extra</text>
    <rect x="20" y="518" width="230" height="15" fill="#F77F00"/>
    <text x="135" y="530" text-anchor="middle" fill="#fff" font-size="10">Ver detalles</text>

    <rect x="275" y="360" width="250" height="180" fill="#fff" stroke="#ddd"/>
    <rect x="275" y="360" width="250" height="80"  fill="#E8F5E9"/>
    <text x="400" y="405" text-anchor="middle" font-size="26">⛽</text>
    <text x="400" y="465" text-anchor="middle" font-weight="bold" font-size="12">EP Petroecuador Sur</text>
    <text x="400" y="485" text-anchor="middle" fill="#888" font-size="11">Av. Morán Valverde</text>
    <text x="400" y="505" text-anchor="middle" fill="#F77F00" font-weight="bold">$2.40/gal Extra</text>

    <rect x="540" y="360" width="270" height="180" fill="#fff" stroke="#ddd"/>
    <rect x="540" y="360" width="270" height="80"  fill="#FCE4EC"/>
    <text x="675" y="405" text-anchor="middle" font-size="26">⛽</text>
    <text x="675" y="465" text-anchor="middle" font-weight="bold" font-size="12">Primax El Inca</text>
    <text x="675" y="485" text-anchor="middle" fill="#888" font-size="11">Av. El Inca — 24 h</text>
    <text x="675" y="505" text-anchor="middle" fill="#F77F00" font-weight="bold">$2.42/gal Extra</text>

    <rect x="10"  y="560" width="250" height="180" fill="#fff" stroke="#ddd"/>
    <rect x="10"  y="560" width="250" height="80"  fill="#E3F2FD"/>
    <text x="135" y="605" text-anchor="middle" font-size="26">⛽</text>
    <text x="135" y="665" text-anchor="middle" font-weight="bold" font-size="12">Repsol La Mariscal</text>
    <text x="135" y="685" text-anchor="middle" fill="#DC2626" font-size="11">CERRADA</text>

    <rect x="275" y="560" width="250" height="180" fill="#fff" stroke="#ddd"/>
    <rect x="275" y="560" width="250" height="80"  fill="#F3E5F5"/>
    <text x="400" y="605" text-anchor="middle" font-size="26">⛽</text>
    <text x="400" y="665" text-anchor="middle" font-weight="bold" font-size="12">Petroecuador Cumbayá</text>
    <text x="400" y="685" text-anchor="middle" fill="#16A34A" font-size="11">ABIERTA</text>

    <rect x="540" y="560" width="270" height="180" fill="#fff" stroke="#ddd"/>
    <rect x="540" y="560" width="270" height="80"  fill="#E0F2F1"/>
    <text x="675" y="605" text-anchor="middle" font-size="26">⛽</text>
    <text x="675" y="665" text-anchor="middle" font-weight="bold" font-size="12">Primax Los Shyris</text>
    <text x="675" y="685" text-anchor="middle" fill="#16A34A" font-size="11">ABIERTA · 24 h</text>
  </g>

  <rect x="10" y="760" width="800" height="80" fill="#1B2A41"/>
  <text x="410" y="808" text-anchor="middle" fill="#64748B" font-size="11">© 2026 GASOYA — Proyecto académico</text>
</svg>
